{
  "accessors": [
    {
      "bufferView": 2,
      "componentType": 5126,
      "count": 65532,
      "max": [
        0.9372389912605286,
        0.642300009727478,
        0.3183009922504425
      ],
      "min": [
        -0.895645022392273,
        -0.6528429985046387,
        -0.3183149993419647
      ],
      "type": "VEC3"
    },
    {
      "bufferView": 2,
      "byteOffset": 786384,
      "componentType": 5126,
      "count": 65532,
      "max": [
        0.9999905824661255,
        0.9999884366989136,
        0.9999960660934448
      ],
      "min": [
        -0.9999113082885742,
        -0.999943733215332,
        -0.9999762773513794
      ],
      "type": "VEC3"
    },
    {
      "bufferView": 3,
      "componentType": 5126,
      "count": 65532,
      "max": [
        0.9999905824661255,
        0.9999945759773254,
        0.999991774559021,
        1.0
      ],
      "min": [
        -0.9999536871910095,
        -0.9999719858169556,
        -0.9999604821205139,
        -1.0
      ],
      "type": "VEC4"
    },
    {
      "bufferView": 1,
      "componentType": 5126,
      "count": 65532,
      "max": [
        0.9877939820289612,
        0.9973880052566528
      ],
      "min": [
        0.001256000017747283,
        0.005120992660522461
      ],
      "type": "VEC2"
    },
    {
      "bufferView": 1,
      "byteOffset": 524256,
      "componentType": 5126,
      "count": 65532,
      "max": [
        0.9877939820289612,
        0.9973880052566528
      ],
      "min": [
        0.001256000017747283,
        0.005120992660522461
      ],
      "type": "VEC2"
    },
    {
      "bufferView": 1,
      "byteOffset": 1048512,
      "componentType": 5126,
      "count": 65532,
      "max": [
        0.9877939820289612,
        0.9973880052566528
      ],
      "min": [
        0.001256000017747283,
        0.005120992660522461
      ],
      "type": "VEC2"
    },
    {
      "bufferView": 1,
      "byteOffset": 1572768,
      "componentType": 5126,
      "count": 65532,
      "max": [
        0.9877939820289612,
        0.9973880052566528
      ],
      "min": [
        0.001256000017747283,
        0.005120992660522461
      ],
      "type": "VEC2"
    },
    {
      "bufferView": 0,
      "componentType": 5125,
      "count": 340791,
      "type": "SCALAR"
    },
    {
      "bufferView": 2,
      "byteOffset": 1572768,
      "componentType": 5126,
      "count": 65532,
      "max": [
        0.9213089942932129,
        0.546875,
        0.3183009922504425
      ],
      "min": [
        -0.8789060115814209,
        -0.6511120200157166,
        -0.3116520047187805
      ],
      "type": "VEC3"
    },
    {
      "bufferView": 2,
      "byteOffset": 2359152,
      "componentType": 5126,
      "count": 65532,
      "max": [
        0.9999045133590698,
        0.9999836683273315,
        0.9999984502792358
      ],
      "min": [
        -0.9995937943458557,
        -0.9999918937683105,
        -0.9999974966049194
      ],
      "type": "VEC3"
    },
    {
      "bufferView": 3,
      "byteOffset": 1048512,
      "componentType": 5126,
      "count": 65532,
      "max": [
        0.9999994039535522,
        0.9999995827674866,
        0.999991774559021,
        1.0
      ],
      "min": [
        -0.9999969005584717,
        -0.9999281764030457,
        -0.9999918937683105,
        -1.0
      ],
      "type": "VEC4"
    },
    {
      "bufferView": 1,
      "byteOffset": 2097024,
      "componentType": 5126,
      "count": 65532,
      "max": [
        0.9992759823799133,
        0.9994180202484131
      ],
      "min": [
        0.00011300000187475234,
        0.003766000270843506
      ],
      "type": "VEC2"
    },
    {
      "bufferView": 1,
      "byteOffset": 2621280,
      "componentType": 5126,
      "count": 65532,
      "max": [
        0.9992759823799133,
        0.9994180202484131
      ],
      "min": [
        0.00011300000187475234,
        0.003766000270843506
      ],
      "type": "VEC2"
    },
    {
      "bufferView": 1,
      "byteOffset": 3145536,
      "componentType": 5126,
      "count": 65532,
      "max": [
        0.9992759823799133,
        0.9994180202484131
      ],
      "min": [
        0.00011300000187475234,
        0.003766000270843506
      ],
      "type": "VEC2"
    },
    {
      "bufferView": 1,
      "byteOffset": 3669792,
      "componentType": 5126,
      "count": 65532,
      "max": [
        0.9992759823799133,
        0.9994180202484131
      ],
      "min": [
        0.00011300000187475234,
        0.003766000270843506
      ],
      "type": "VEC2"
    },
    {
      "bufferView": 0,
      "byteOffset": 1363164,
      "componentType": 5125,
      "count": 335331,
      "type": "SCALAR"
    },
    {
      "bufferView": 2,
      "byteOffset": 3145536,
      "componentType": 5126,
      "count": 65532,
      "max": [
        0.951960027217865,
        0.6550289988517761,
        0.16771499812602997
      ],
      "min": [
        -0.9519439935684204,
        -0.6514099836349487,
        -0.3183149993419647
      ],
      "type": "VEC3"
    },
    {
      "bufferView": 2,
      "byteOffset": 3931920,
      "componentType": 5126,
      "count": 65532,
      "max": [
        0.9999879598617554,
        0.999984860420227,
        0.9999980926513672
      ],
      "min": [
        -0.9999246597290039,
        -0.9999918937683105,
        -0.9999992847442627
      ],
      "type": "VEC3"
    },
    {
      "bufferView": 3,
      "byteOffset": 2097024,
      "componentType": 5126,
      "count": 65532,
      "max": [
        0.9999774694442749,
        0.9999799132347107,
        0.9999595880508423,
        1.0
      ],
      "min": [
        -0.9999955892562866,
        -0.9999778866767883,
        -0.9999935626983643,
        -1.0
      ],
      "type": "VEC4"
    },
    {
      "bufferView": 1,
      "byteOffset": 4194048,
      "componentType": 5126,
      "count": 65532,
      "max": [
        0.9999889731407166,
        0.9999560117721558
      ],
      "min": [
        0.00016799999866634607,
        0.0030159950256347656
      ],
      "type": "VEC2"
    },
    {
      "bufferView": 1,
      "byteOffset": 4718304,
      "componentType": 5126,
      "count": 65532,
      "max": [
        0.9999889731407166,
        0.9999560117721558
      ],
      "min": [
        0.00016799999866634607,
        0.0030159950256347656
      ],
      "type": "VEC2"
    },
    {
      "bufferView": 1,
      "byteOffset": 5242560,
      "componentType": 5126,
      "count": 65532,
      "max": [
        0.9999889731407166,
        0.9999560117721558
      ],
      "min": [
        0.00016799999866634607,
        0.0030159950256347656
      ],
      "type": "VEC2"
    },
    {
      "bufferView": 1,
      "byteOffset": 5766816,
      "componentType": 5126,
      "count": 65532,
      "max": [
        0.9999889731407166,
        0.9999560117721558
      ],
      "min": [
        0.00016799999866634607,
        0.0030159950256347656
      ],
      "type": "VEC2"
    },
    {
      "bufferView": 0,
      "byteOffset": 2704488,
      "componentType": 5125,
      "count": 318609,
      "type": "SCALAR"
    },
    {
      "bufferView": 2,
      "byteOffset": 4718304,
      "componentType": 5126,
      "count": 3352,
      "max": [
        0.5865960121154785,
        0.3320539891719818,
        0.17685499787330627
      ],
      "min": [
        -0.7690539956092834,
        -0.5251970291137695,
        0.09096100181341171
      ],
      "type": "VEC3"
    },
    {
      "bufferView": 2,
      "byteOffset": 4758528,
      "componentType": 5126,
      "count": 3352,
      "max": [
        0.9993106126785278,
        0.9745234847068787,
        0.996635377407074
      ],
      "min": [
        -0.9990628957748413,
        -0.9840601086616516,
        -0.4720848500728607
      ],
      "type": "VEC3"
    },
    {
      "bufferView": 3,
      "byteOffset": 3145536,
      "componentType": 5126,
      "count": 3352,
      "max": [
        0.9957627654075623,
        0.9995325803756714,
        0.9994528889656067,
        -1.0
      ],
      "min": [
        -0.9761610627174377,
        -0.9937101006507874,
        -0.9998548626899719,
        -1.0
      ],
      "type": "VEC4"
    },
    {
      "bufferView": 1,
      "byteOffset": 6291072,
      "componentType": 5126,
      "count": 3352,
      "max": [
        0.988548994064331,
        0.9998220205307007
      ],
      "min": [
        0.0005339999916031957,
        0.011160016059875488
      ],
      "type": "VEC2"
    },
    {
      "bufferView": 1,
      "byteOffset": 6317888,
      "componentType": 5126,
      "count": 3352,
      "max": [
        0.988548994064331,
        0.9998220205307007
      ],
      "min": [
        0.0005339999916031957,
        0.011160016059875488
      ],
      "type": "VEC2"
    },
    {
      "bufferView": 1,
      "byteOffset": 6344704,
      "componentType": 5126,
      "count": 3352,
      "max": [
        0.988548994064331,
        0.9998220205307007
      ],
      "min": [
        0.0005339999916031957,
        0.011160016059875488
      ],
      "type": "VEC2"
    },
    {
      "bufferView": 1,
      "byteOffset": 6371520,
      "componentType": 5126,
      "count": 3352,
      "max": [
        0.988548994064331,
        0.9998220205307007
      ],
      "min": [
        0.0005339999916031957,
        0.011160016059875488
      ],
      "type": "VEC2"
    },
    {
      "bufferView": 0,
      "byteOffset": 3978924,
      "componentType": 5125,
      "count": 11421,
      "type": "SCALAR"
    }
  ],
  "asset": {
    "extras": {
      "author": "faivaltutuG i love Dandys world (https://sketchfab.com/faivaltutug)",
      "license": "SKETCHFAB Standard (https://sketchfab.com/licenses)",
      "source": "https://sketchfab.com/3d-models/fish-finn-dandys-world-521241ccc76440ffbba3ac70c176db0f",
      "title": "Fish finn dandys world"
    },
    "generator": "Sketchfab-16.85.0",
    "version": "2.0"
  },
  "bufferViews": [
    {
      "buffer": 0,
      "byteLength": 4024608,
      "name": "floatBufferViews",
      "target": 34963
    },
    {
      "buffer": 0,
      "byteLength": 6398336,
      "byteOffset": 4024608,
      "byteStride": 8,
      "name": "floatBufferViews",
      "target": 34962
    },
    {
      "buffer": 0,
      "byteLength": 4798752,
      "byteOffset": 10422944,
      "byteStride": 12,
      "name": "floatBufferViews",
      "target": 34962
    },
    {
      "buffer": 0,
      "byteLength": 3199168,
      "byteOffset": 15221696,
      "byteStride": 16,
      "name": "floatBufferViews",
      "target": 34962
    }
  ],
  "buffers": [
    {
      "byteLength": 18420864,
      "uri": "scene.bin"
    }
  ],
  "images": [
    {
      "uri": "textures/material_0_baseColor.jpeg"
    },
    {
      "uri": "textures/material_0_metallicRoughness.png"
    },
    {
      "uri": "textures/material_0_normal.jpeg"
    }
  ],
  "materials": [
    {
      "doubleSided": true,
      "name": "material_0",
      "normalTexture": {
        "index": 2,
        "texCoord": 2
      },
      "pbrMetallicRoughness": {
        "baseColorTexture": {
          "index": 0
        },
        "metallicRoughnessTexture": {
          "index": 1,
          "texCoord": 1
        }
      }
    }
  ],
  "meshes": [
    {
      "name": "Object_0",
      "primitives": [
        {
          "attributes": {
            "NORMAL": 1,
            "POSITION": 0,
            "TANGENT": 2,
            "TEXCOORD_0": 3,
            "TEXCOORD_1": 4,
            "TEXCOORD_2": 5,
            "TEXCOORD_3": 6
          },
          "indices": 7,
          "material": 0,
          "mode": 4
        }
      ]
    },
    {
      "name": "Object_1",
      "primitives": [
        {
          "attributes": {
            "NORMAL": 9,
            "POSITION": 8,
            "TANGENT": 10,
            "TEXCOORD_0": 11,
            "TEXCOORD_1": 12,
            "TEXCOORD_2": 13,
            "TEXCOORD_3": 14
          },
          "indices": 15,
          "material": 0,
          "mode": 4
        }
      ]
    },
    {
      "name": "Object_2",
      "primitives": [
        {
          "attributes": {
            "NORMAL": 17,
            "POSITION": 16,
            "TANGENT": 18,
            "TEXCOORD_0": 19,
            "TEXCOORD_1": 20,
            "TEXCOORD_2": 21,
            "TEXCOORD_3": 22
          },
          "indices": 23,
          "material": 0,
          "mode": 4
        }
      ]
    },
    {
      "name": "Object_3",
      "primitives": [
        {
          "attributes": {
            "NORMAL": 25,
            "POSITION": 24,
            "TANGENT": 26,
            "TEXCOORD_0": 27,
            "TEXCOORD_1": 28,
            "TEXCOORD_2": 29,
            "TEXCOORD_3": 30
          },
          "indices": 31,
          "material": 0,
          "mode": 4
        }
      ]
    }
  ],
  "nodes": [
    {
      "children": [
        1
      ],
      "matrix": [
        1.0,
        0.0,
        0.0,
        0.0,
        0.0,
        2.220446049250313e-16,
        -1.0,
        0.0,
        0.0,
        1.0,
        2.220446049250313e-16,
        0.0,
        0.0,
        0.0,
        0.0,
        1.0
      ],
      "name": "Sketchfab_model"
    },
    {
      "children": [
        2
      ],
      "name": "root"
    },
    {
      "children": [
        3
      ],
      "matrix": [
        1.0,
        0.0,
        0.0,
        0.0,
        0.0,
        2.220446049250313e-16,
        1.0,
        0.0,
        0.0,
        -1.0,
        2.220446049250313e-16,
        0.0,
        0.0,
        0.0,
        0.0,
        1.0
      ],
      "name": "GLTF_SceneRootNode"
    },
    {
      "children": [
        4,
        5,
        6,
        7
      ],
      "name": "_0"
    },
    {
      "mesh": 0,
      "name": "Object_4"
    },
    {
      "mesh": 1,
      "name": "Object_5"
    },
    {
      "mesh": 2,
      "name": "Object_6"
    },
    {
      "mesh": 3,
      "name": "Object_7"
    }
  ],
  "samplers": [
    {
      "magFilter": 9729,
      "minFilter": 9987,
      "wrapS": 10497,
      "wrapT": 10497
    }
  ],
  "scene": 0,
  "scenes": [
    {
      "name": "Sketchfab_Scene",
      "nodes": [
        0
      ]
    }
  ],
  "textures": [
    {
      "sampler": 0,
      "source": 0
    },
    {
      "sampler": 0,
      "source": 1
    },
    {
      "sampler": 0,
      "source": 2
    }
  ]
}
